# xmcd
#
# Track frame offsets:
#	150
#	26652
#	43562
#	63072
#	79327
#	96922
#	114515
#
# Disc length: 1756 seconds
#
# Revision: 1
# Processed by: cddbd v1.5.1PL0 Copyright (c) Steve Scherf et al.
# Submitted via: CDex 1.50Beta5
#
DISCID=5106da07
DTITLE=永井真理子 - ZUTTO
DYEAR=1900
DGENRE=Pop
TTITLE0=ZUTTO
TTITLE1=ミラクル・ガール
TTITLE2=White Communicaition-新しい絆ー
TTITLE3=Fight!
TTITLE4=Step Step Step
TTITLE5=ハートをWASH!
TTITLE6=私の中の勇気
EXTD=
EXTT0=
EXTT1=
EXTT2=
EXTT3=
EXTT4=
EXTT5=
EXTT6=
PLAYORDER=
